<svg width="52" height="24" viewBox="0 0 52 24" fill="none" xmlns="http://www.w3.org/2000/svg">
<g id="icon-adidas-affirm">
<g id="Vector">
<path fill-rule="evenodd" clip-rule="evenodd" d="M4.22998 20.2727C3.6212 20.2727 3.31107 19.9675 3.31107 19.4658C3.31107 18.5302 4.33565 18.2156 6.20449 18.0133C6.20449 19.26 5.37632 20.2727 4.22424 20.2727H4.22998ZM5.03403 13.2618C3.69816 13.2618 2.16242 13.9015 1.32851 14.5786L2.09006 16.2159C2.75857 15.5926 3.83944 15.0593 4.81464 15.0593C5.74159 15.0593 6.25389 15.375 6.25389 16.0112C6.25389 16.4381 5.91504 16.6544 5.27409 16.7398C2.87803 17.0555 1 17.7292 1 19.6085C1 21.0984 2.04182 22 3.66944 22C4.83187 22 5.86564 21.3428 6.35726 20.4797V21.7661H8.5236V16.3761C8.5236 14.1541 7.00854 13.2572 5.03518 13.2572L5.03403 13.2618Z" fill="#101820"/>
<path fill-rule="evenodd" clip-rule="evenodd" d="M26.7767 13.5039V21.7556H29.0947V17.7794C29.0947 15.8908 30.218 15.3353 31.0003 15.3353C31.3524 15.3325 31.6974 15.4363 31.9915 15.6335L32.4154 13.4525C32.0869 13.3186 31.7353 13.2538 31.3816 13.2618C30.1905 13.2618 29.4415 13.7986 28.9476 14.8909V13.5039H26.7767Z" fill="#101820"/>
<path fill-rule="evenodd" clip-rule="evenodd" d="M43.1575 13.2618C41.9319 13.2618 41.0153 13.9986 40.5386 14.7096C40.0963 13.7916 39.1602 13.2618 38.0345 13.2618C36.8101 13.2618 35.9612 13.9542 35.5695 14.7517V13.5039H33.3343V21.7556H35.6545V17.507C35.6545 15.9867 36.4391 15.2511 37.1707 15.2511C37.8335 15.2511 38.4423 15.6873 38.4423 16.8135V21.7556H40.758V17.507C40.758 15.9644 41.5229 15.2511 42.2891 15.2511C42.9025 15.2511 43.5526 15.7048 43.5526 16.7971V21.7556H45.8683V16.051C45.8683 14.1974 44.6427 13.2618 43.1621 13.2618" fill="#101820"/>
<path fill-rule="evenodd" clip-rule="evenodd" d="M21.1357 13.5039H19.036V12.6654C19.036 11.5731 19.6482 11.2621 20.1755 11.2621C20.5355 11.2669 20.8894 11.3569 21.2092 11.5252L21.9237 9.86107C21.9237 9.86107 21.1989 9.37925 19.8814 9.37925C18.4008 9.37925 16.7158 10.2294 16.7158 12.897V13.5039H13.2067V12.6654C13.2067 11.5731 13.8177 11.2621 14.3461 11.2621C14.7067 11.262 15.0617 11.3524 15.3799 11.5252L16.0943 9.86107C15.6682 9.6073 14.9825 9.37925 14.0532 9.37925C12.5726 9.37925 10.8876 10.2294 10.8876 12.897V13.5039H9.54594V15.3236H10.891V21.7556H13.2067V15.3236H16.7204V21.7556H19.036V15.3236H21.1357V13.5039Z" fill="#101820"/>
<path d="M24.8321 13.5039H22.5187V21.7521H24.8321V13.5039Z" fill="#101820"/>
<path fill-rule="evenodd" clip-rule="evenodd" d="M22.6037 12.1017H24.87C26.192 7.86949 30.6775 4.14946 36.0118 4.14946C42.4993 4.14946 48.1058 9.17811 48.1058 17.0064C48.1256 18.6133 47.9087 20.2141 47.4626 21.7556H49.6622L49.6841 21.6784C50.0547 20.1524 50.2376 18.5854 50.2285 17.0134C50.2285 8.28348 43.9799 2 36.0164 2C29.7609 2 24.1854 6.42053 22.6048 12.1041L22.6037 12.1017Z" fill="#4A4AF4"/>
</g>
</g>
</svg>
