<svg width="36" height="24" viewBox="0 0 36 24" fill="none" xmlns="http://www.w3.org/2000/svg">
<g id="icon-adidas-google-pay-2">
<g id="Vector">
<path fill-rule="evenodd" clip-rule="evenodd" d="M17.219 12.3763V15.6044H16.2104V7.63582H18.8854C19.5306 7.62316 20.157 7.87101 20.6143 8.32855C21.5289 9.1927 21.5853 10.6479 20.7271 11.582L20.6143 11.6964C20.1445 12.1476 19.5682 12.3763 18.8854 12.3763H17.219ZM17.219 8.61449V11.3977H18.9104C19.2862 11.4105 19.6496 11.258 19.9064 10.9847C20.4326 10.4319 20.4201 9.54223 19.8751 9.00844C19.6182 8.75425 19.2737 8.61449 18.9104 8.61449H17.219ZM23.6651 9.97427C24.4105 9.97427 24.9994 10.1776 25.4317 10.5779C25.8639 10.9783 26.0769 11.5375 26.0769 12.2428V15.6043H25.1122V14.8482H25.0683C24.6486 15.4709 24.0973 15.7822 23.402 15.7822C22.8132 15.7822 22.312 15.6043 21.9173 15.2485C21.5289 14.9181 21.3097 14.4288 21.3222 13.914C21.3222 13.3485 21.5352 12.9037 21.9549 12.5669C22.3746 12.2301 22.9384 12.0649 23.6401 12.0649C24.2414 12.0649 24.7301 12.1793 25.1184 12.3953V12.1602C25.1184 11.8107 24.9681 11.4803 24.705 11.2515C24.4356 11.01 24.0911 10.8766 23.734 10.8766C23.1702 10.8766 22.7254 11.118 22.3997 11.601L21.5101 11.0354C21.9863 10.3301 22.7066 9.97427 23.6651 9.97427ZM22.3621 13.9331C22.3621 14.2 22.4874 14.4478 22.6941 14.6003C22.9197 14.7782 23.1953 14.8736 23.4771 14.8673C23.9032 14.8673 24.3104 14.6957 24.6111 14.3906C24.9431 14.0729 25.1122 13.698 25.1122 13.2659C24.799 13.0117 24.3605 12.8846 23.7967 12.891C23.3895 12.891 23.0449 12.9927 22.7693 13.1896C22.4999 13.3866 22.3621 13.6345 22.3621 13.9331ZM28.2444 18L31.6147 10.1522H30.5185L28.9586 14.0665H28.9398L27.3424 10.1522H26.246L28.4575 15.2549L27.2045 18H28.2444Z" fill="#3C4043"/>
<path fill-rule="evenodd" clip-rule="evenodd" d="M13.1408 11.6772C13.1408 11.3659 13.1157 11.0545 13.0656 10.7495H8.81202V12.5096H11.2489C11.1487 13.0753 10.8229 13.5836 10.3468 13.9013V15.0451H11.8002C12.6522 14.2508 13.1408 13.0753 13.1408 11.6772Z" fill="#4285F4"/>
<path fill-rule="evenodd" clip-rule="evenodd" d="M8.81203 16.1509C10.0274 16.1509 11.0547 15.7442 11.8002 15.0451L10.3468 13.9013C9.93962 14.181 9.41974 14.3398 8.81203 14.3398C7.63434 14.3398 6.63826 13.5327 6.28123 12.4525H4.78403V13.6344C5.54826 15.1786 7.10813 16.1509 8.81203 16.1509Z" fill="#34A853"/>
<path fill-rule="evenodd" clip-rule="evenodd" d="M6.28123 12.4525C6.0933 11.8869 6.0933 11.2705 6.28123 10.6987V9.52307H4.78403C4.13872 10.813 4.13872 12.3381 4.78403 13.6281L6.28123 12.4525Z" fill="#FBBC04"/>
<path fill-rule="evenodd" clip-rule="evenodd" d="M8.81202 8.81134C9.45733 8.79867 10.0775 9.04644 10.541 9.49765L11.8315 8.18862C11.0109 7.41339 9.93337 6.98761 8.81202 7.00027C7.10813 7.00027 5.54826 7.97894 4.78403 9.52307L6.28123 10.705C6.63826 9.61841 7.63434 8.81134 8.81202 8.81134Z" fill="#EA4335"/>
</g>
<rect x="0.2" y="0.2" width="35.6" height="23.6" rx="1.8" stroke="black" stroke-width="0.4"/>
</g>
</svg>
