<svg width="36" height="24" viewBox="0 0 36 24" fill="none" xmlns="http://www.w3.org/2000/svg">
<g id="icon-adidas-discover" clip-path="url(#clip0_178_1491)">
<g id="Vector">
<path d="M0.406182 1.23593V22.7641C0.406182 23.2185 0.770637 23.588 1.21855 23.588H22.7543C29.0643 23.588 34.1795 18.4001 34.1795 12C34.1795 5.59999 29.0643 0.411976 22.7543 0.411976H1.21855C0.770637 0.411976 0.406182 0.781518 0.406182 1.23593Z" fill="white"/>
<path d="M34.1795 12C34.1795 18.4001 29.0643 23.588 22.7543 23.588H1.21855C0.770637 23.588 0.406182 23.2185 0.406182 22.7641V1.23593C0.406182 0.781518 0.770637 0.411976 1.21855 0.411976H22.7543C29.0643 0.411976 34.1795 5.59999 34.1795 12ZM34.7815 0H1.21855C0.54549 0 0 0.553284 0 1.23593V22.7641C0 23.4467 0.54549 24 1.21855 24H34.7815C35.4543 24 36 23.4467 36 22.7641V12V1.23593C36 0.553284 35.4543 0 34.7815 0Z" fill="#F36719"/>
</g>
<g id="Vector_2">
<path d="M4.35933 13.2273C4.04682 13.5095 3.64064 13.6327 2.99821 13.6327H2.73107V10.2603H2.99821C3.64064 10.2603 4.03073 10.3752 4.35933 10.6727C4.70357 10.9792 4.91006 11.4534 4.91006 11.942C4.91006 12.4318 4.70357 12.9212 4.35933 13.2273ZM3.19744 9.39595H1.73718V14.4962H3.18956C3.96185 14.4962 4.51979 14.3141 5.00934 13.9071C5.59109 13.4255 5.93501 12.7 5.93501 11.9498C5.93501 10.4444 4.81061 9.39595 3.19744 9.39595Z" fill="#231F20"/>
<path d="M6.39301 14.4962H7.38752V9.39595H6.39301V14.4962Z" fill="#231F20"/>
<path d="M9.81995 11.3532C9.22291 11.132 9.04766 10.9866 9.04766 10.711C9.04766 10.3896 9.36002 10.1457 9.78872 10.1457C10.0869 10.1457 10.3317 10.2681 10.591 10.559L11.1116 9.87714C10.6837 9.50306 10.1719 9.3119 9.61301 9.3119C8.71054 9.3119 8.02225 9.93852 8.02225 10.7732C8.02225 11.4756 8.34281 11.8353 9.27717 12.1714C9.66644 12.309 9.86452 12.4005 9.96463 12.4623C10.1632 12.5916 10.263 12.7754 10.263 12.9896C10.263 13.4028 9.93439 13.7089 9.49037 13.7089C9.01626 13.7089 8.63391 13.472 8.40493 13.0292L7.76217 13.6475C8.22049 14.3203 8.77085 14.6186 9.52786 14.6186C10.5617 14.6186 11.287 13.9314 11.287 12.9443C11.287 12.1335 10.9518 11.7669 9.81995 11.3532Z" fill="#231F20"/>
<path d="M11.6008 11.9498C11.6008 13.4486 12.7778 14.6107 14.2926 14.6107C14.7207 14.6107 15.0873 14.5267 15.5397 14.3141V13.1429C15.1419 13.5408 14.7896 13.7011 14.3387 13.7011C13.3367 13.7011 12.6258 12.9748 12.6258 11.942C12.6258 10.9631 13.3596 10.1906 14.2926 10.1906C14.7669 10.1906 15.1264 10.36 15.5397 10.7645V9.59411C15.1031 9.37246 14.7441 9.281 14.316 9.281C12.809 9.281 11.6008 10.4667 11.6008 11.9498Z" fill="#231F20"/>
<path d="M23.4272 12.8215L22.0668 9.39595H20.9803L23.1445 14.6272H23.6799L25.8832 9.39595H24.8046L23.4272 12.8215Z" fill="#231F20"/>
<path d="M26.3326 14.4962H29.154V13.6327H27.327V12.2559H29.0863V11.392H27.327V10.2603H29.154V9.39595H26.3326V14.4962Z" fill="#231F20"/>
<path d="M31.0972 11.7442H30.8063V10.1993H31.1125C31.7324 10.1993 32.0692 10.4588 32.0692 10.9553C32.0692 11.4682 31.7324 11.7442 31.0972 11.7442ZM33.0932 10.9017C33.0932 9.94676 32.435 9.39595 31.2878 9.39595H29.8129V14.4962H30.8063V12.4475H30.9363L32.3132 14.4962H33.5364L31.9307 12.3473C32.6803 12.1949 33.0932 11.6828 33.0932 10.9017Z" fill="#231F20"/>
<path d="M21.2636 11.9407C21.2636 13.4321 20.0547 14.6412 18.563 14.6412C17.0714 14.6412 15.8623 13.4321 15.8623 11.9407C15.8623 10.449 17.0714 9.23981 18.563 9.23981C20.0547 9.23981 21.2636 10.449 21.2636 11.9407Z" fill="#F36719"/>
</g>
</g>
<defs>
<clipPath id="clip0_178_1491">
<rect width="36" height="24" fill="white"/>
</clipPath>
</defs>
</svg>
