<?xml version="1.0" encoding="UTF-8"?>
<svg version="1.1" xmlns="http://www.w3.org/2000/svg" width="641" height="372">
<path d="M0 0 C1.43693376 -0.00187174 2.87386702 -0.00417389 4.31079948 -0.00686532 C8.23228134 -0.01294489 12.15374177 -0.01285429 16.07522726 -0.01167095 C20.31534747 -0.01146596 24.55546096 -0.01699503 28.795578 -0.02172852 C37.0929829 -0.03001469 45.3903807 -0.03278244 53.6877894 -0.03334089 C60.43700095 -0.03381705 67.18621017 -0.03587678 73.93542099 -0.03904152 C93.09711369 -0.04784281 112.25880079 -0.05246176 131.42049553 -0.05171105 C132.45227125 -0.05167109 133.48404697 -0.05163113 134.54708862 -0.05158997 C135.58013338 -0.05154909 136.61317815 -0.0515082 137.67752729 -0.05146609 C154.4104233 -0.05105984 171.14329678 -0.06062532 187.87618627 -0.07472833 C205.08331702 -0.08911587 222.29043681 -0.0959972 239.49757373 -0.09513456 C249.14760406 -0.09480339 258.79761077 -0.09751505 268.44763565 -0.10831261 C276.66529581 -0.11744899 284.88292165 -0.11956723 293.1005847 -0.11280318 C297.28699208 -0.10955366 301.47333373 -0.10942409 305.65973473 -0.11815643 C356.49823316 -0.21735322 356.49823316 -0.21735322 372.54220581 12.13371277 C373.15708862 12.58488464 373.77197144 13.03605652 374.40548706 13.50090027 C386.04527857 22.63723329 390.62564302 35.93787631 392.54220581 50.13371277 C393.54389786 59.82573331 393.70523942 69.49816508 393.71017456 79.23136902 C393.71340176 80.75671416 393.71676682 82.28205901 393.72026062 83.80740356 C393.72620382 86.98836482 393.72810563 90.1692991 393.72750854 93.3502655 C393.72742749 96.56842188 393.73434484 99.7864353 393.74801636 103.00456238 C394.00048692 163.36925533 394.00048692 163.36925533 378.28829956 180.60636902 C362.05232126 196.21688427 341.39273673 197.29249788 320.03971863 197.26742554 C318.59794737 197.26929726 317.15617663 197.27159939 315.71440667 197.27429086 C311.77959264 197.28037065 307.84479997 197.2802798 303.90998232 197.27909648 C299.65556619 197.27889151 295.40115675 197.28442047 291.14674377 197.28915405 C282.8216004 197.29744017 274.49646411 197.30020797 266.17131696 197.30076643 C259.40016699 197.30124256 252.62901934 197.30330214 245.8578701 197.30646706 C226.63577422 197.31526807 207.41368391 197.3198873 188.191586 197.31913658 C187.15656055 197.31909663 186.12153511 197.31905667 185.05514526 197.3190155 C184.01884758 197.31897462 182.98254989 197.31893374 181.91484924 197.31889162 C165.12631224 197.31848531 148.33779767 197.3280526 131.54926715 197.34215387 C114.28677062 197.35653816 97.02428502 197.36342292 79.76178235 197.36256009 C70.07992586 197.36222883 60.39809291 197.36494474 50.71624184 197.37573814 C42.4722027 197.3848702 34.22819777 197.38699626 25.98415575 197.38022872 C21.78369549 197.37697713 17.58330075 197.37685725 13.38284683 197.38558197 C9.5267441 197.39350857 5.67075816 197.39195355 1.81465807 197.38329784 C-0.21796023 197.38106352 -2.25058233 197.3885428 -4.28318614 197.39653748 C-23.59830597 197.32514872 -43.02545657 195.17621174 -57.70779419 181.38371277 C-73.5765189 164.49119936 -73.78584506 141.61658898 -73.72341919 119.78996277 C-73.72477257 118.08378545 -73.72671864 116.37760852 -73.72921753 114.6714325 C-73.73213723 111.12512987 -73.72797435 107.57892916 -73.71853638 104.03263855 C-73.70714382 99.53837718 -73.71372045 95.04435489 -73.7256813 90.55010223 C-73.73298615 87.03573376 -73.73057292 83.52141988 -73.72542572 80.00704956 C-73.72411292 78.35203013 -73.72565136 76.69700537 -73.73038483 75.04199219 C-73.77744141 53.97838279 -72.93012809 32.26511518 -57.83279419 15.94621277 C-41.69930413 0.87814187 -20.94770088 -0.02468201 0 0 Z " fill="#FDB0D1" transform="translate(160.45779418945313,86.86628723144531)"/>
<path d="M0 0 C2.60578794 1.79208464 4.36951887 3.80959393 6.1015625 6.4453125 C6.4315625 6.4453125 6.7615625 6.4453125 7.1015625 6.4453125 C6.6065625 2.4853125 6.6065625 2.4853125 6.1015625 -1.5546875 C11.7115625 -1.5546875 17.3215625 -1.5546875 23.1015625 -1.5546875 C23.1015625 17.2553125 23.1015625 36.0653125 23.1015625 55.4453125 C17.4915625 55.4453125 11.8815625 55.4453125 6.1015625 55.4453125 C6.1015625 52.77864583 6.1015625 50.11197917 6.1015625 47.4453125 C5.6065625 48.1878125 5.1115625 48.9303125 4.6015625 49.6953125 C0.72282489 53.96192387 -5.05066162 57.05066882 -10.87890625 57.6484375 C-19.02885475 57.82153375 -25.49530374 55.59565922 -31.8984375 50.4453125 C-39.37010445 42.40733339 -41.43977683 34.2102452 -41.38842773 23.40063477 C-41.07335221 15.22119701 -38.05507886 9.58563749 -32.7109375 3.5703125 C-23.28389688 -5.04229697 -10.9881236 -6.10451311 0 0 Z " fill="#0C061B" transform="translate(471.8984375,171.5546875)"/>
<path d="M0 0 C3.30921397 2.21255585 5.89887863 4.97746399 8.015625 8.34765625 C8.015625 9.00765625 8.015625 9.66765625 8.015625 10.34765625 C8.675625 10.34765625 9.335625 10.34765625 10.015625 10.34765625 C9.520625 9.57421875 9.520625 9.57421875 9.015625 8.78515625 C8.015625 6.34765625 8.015625 6.34765625 8.015625 -0.65234375 C13.295625 -0.65234375 18.575625 -0.65234375 24.015625 -0.65234375 C24.015625 18.15765625 24.015625 36.96765625 24.015625 56.34765625 C18.735625 56.34765625 13.455625 56.34765625 8.015625 56.34765625 C8.015625 53.34765625 8.015625 50.34765625 8.015625 47.34765625 C7.66371094 47.81816406 7.31179688 48.28867188 6.94921875 48.7734375 C6.45550781 49.39605469 5.96179688 50.01867187 5.453125 50.66015625 C4.73962891 51.58248047 4.73962891 51.58248047 4.01171875 52.5234375 C-1.96305069 57.98374538 -9.35086644 58.10633557 -17.02734375 57.81640625 C-23.86082324 57.00691214 -28.30725004 54.39581133 -32.81640625 49.26171875 C-38.99319016 40.6953761 -41.16464379 31.83595393 -39.984375 21.34765625 C-38.09473977 12.91178468 -34.19927822 6.10064099 -27.1171875 1.00390625 C-18.76167759 -4.01657181 -8.71967766 -4.3755217 0 0 Z " fill="#0B051B" transform="translate(289.984375,170.65234375)"/>
<path d="M0 0 C5.94 0 11.88 0 18 0 C18 13.53 18 27.06 18 41 C33.6015274 31.07175529 42.01207327 22.72670039 47 5 C47.33 3.35 47.66 1.7 48 0 C53.61 0 59.22 0 65 0 C65.90075007 13.28606355 60.68803318 26.14465096 52.09765625 36.234375 C49.52780993 38.86398518 47.06808176 40.95461216 44 43 C45.34157021 45.87740935 46.8673975 48.27844676 48.8359375 50.765625 C49.40038574 51.48363281 49.96483398 52.20164063 50.54638672 52.94140625 C51.1498291 53.70324219 51.75327148 54.46507812 52.375 55.25 C53.63640728 56.85859869 54.89680314 58.46799094 56.15625 60.078125 C56.79433594 60.89345703 57.43242187 61.70878906 58.08984375 62.54882812 C61.04737018 66.34401797 63.97145753 70.16339713 66.875 74 C67.39239746 74.67579102 67.90979492 75.35158203 68.44287109 76.04785156 C72 80.76711412 72 80.76711412 72 83 C54.23456458 85.82335771 54.23456458 85.82335771 47.80957031 81.53955078 C43.68727459 77.45229775 40.68735949 72.5805791 37.67382812 67.64892578 C34.80502088 63.10887931 31.49459354 58.89995998 28.25 54.625 C27.08271276 53.05901554 25.92082582 51.48898404 24.765625 49.9140625 C24.27868164 49.2535791 23.79173828 48.5930957 23.29003906 47.91259766 C22.00340396 46.00504667 20.9798125 44.07935416 20 42 C19.34 42 18.68 42 18 42 C18 55.53 18 69.06 18 83 C12.06 83 6.12 83 0 83 C0 55.61 0 28.22 0 0 Z " fill="#0A051A" transform="translate(146,144)"/>
<path d="M0 0 C3.82346322 3.82346322 5.86990576 7.73847154 6.18275452 13.13800049 C6.18053391 13.87524353 6.17831329 14.61248657 6.17602539 15.37207031 C6.17594986 16.21263977 6.17587433 17.05320923 6.17579651 17.91925049 C6.17063522 18.81730408 6.16547394 19.71535767 6.16015625 20.640625 C6.1587413 21.5671991 6.15732635 22.49377319 6.15586853 23.44842529 C6.15027824 26.40314992 6.1377275 29.35779833 6.125 32.3125 C6.11998375 34.31770724 6.11542106 36.32291567 6.11132812 38.328125 C6.10031199 43.23961263 6.083054 48.1510434 6.0625 53.0625 C0.4525 53.0625 -5.1575 53.0625 -10.9375 53.0625 C-10.98648438 50.59394531 -11.03546875 48.12539062 -11.0859375 45.58203125 C-11.13999886 43.18247592 -11.19728602 40.78301769 -11.25488281 38.38354492 C-11.29308696 36.72020752 -11.32795463 35.05678992 -11.359375 33.39331055 C-11.40521234 30.9975932 -11.46317467 28.60242391 -11.5234375 26.20703125 C-11.53498871 25.4672554 -11.54653992 24.72747955 -11.55844116 23.96528625 C-11.67276045 19.93586435 -11.98158095 16.62533111 -13.9375 13.0625 C-17.31278185 10.8123121 -18.82789037 10.68174019 -22.8125 10.5625 C-23.84117187 10.5109375 -24.86984375 10.459375 -25.9296875 10.40625 C-29.40925081 11.16542745 -30.70744368 12.46618815 -32.88342285 15.22650146 C-34.77627045 18.5234759 -34.66389218 21.79914763 -34.64453125 25.5234375 C-34.65965256 26.31400543 -34.67477386 27.10457336 -34.69035339 27.9190979 C-34.73308346 30.42552539 -34.74205352 32.93074524 -34.75 35.4375 C-34.77315595 37.14456303 -34.79852358 38.85159757 -34.82617188 40.55859375 C-34.89301562 44.72721257 -34.91412084 48.89250888 -34.9375 53.0625 C-40.8775 53.0625 -46.8175 53.0625 -52.9375 53.0625 C-52.9375 33.9225 -52.9375 14.7825 -52.9375 -4.9375 C-46.9975 -4.9375 -41.0575 -4.9375 -34.9375 -4.9375 C-35.66384389 -0.57943667 -36.47582085 2.96979837 -37.9375 7.0625 C-37.2775 7.0625 -36.6175 7.0625 -35.9375 7.0625 C-35.751875 6.19625 -35.56625 5.33 -35.375 4.4375 C-33.5254118 0.09498858 -30.87649011 -2.38629755 -26.9375 -4.9375 C-17.39053885 -8.13265232 -8.12455972 -5.35875216 0 0 Z " fill="#0B051B" transform="translate(417.9375,173.9375)"/>
<path d="M0 0 C5.94 0 11.88 0 18 0 C18 27.72 18 55.44 18 84 C12.06 84 6.12 84 0 84 C0 56.28 0 28.56 0 0 Z " fill="#0C051D" transform="translate(225,143)"/>
<path d="M0 0 C0 5.61 0 11.22 0 17 C-1.36125 17.061875 -2.7225 17.12375 -4.125 17.1875 C-9.23967022 17.74414392 -11.47863277 19.30256441 -15 23 C-16.15839043 26.47517129 -16.22801218 29.6727002 -16.31640625 33.29296875 C-16.33718735 33.99899734 -16.35796844 34.70502594 -16.37937927 35.43244934 C-16.44467491 37.68403551 -16.50366647 39.93573662 -16.5625 42.1875 C-16.60570425 43.7155066 -16.64931916 45.24350164 -16.69335938 46.77148438 C-16.8011075 50.51420689 -16.90032855 54.25701879 -17 58 C-22.61 58 -28.22 58 -34 58 C-34 39.19 -34 20.38 -34 1 C-28.72 1 -23.44 1 -18 1 C-17.67 3.31 -17.34 5.62 -17 8 C-16.236875 7.05125 -15.47375 6.1025 -14.6875 5.125 C-10.21979983 -0.42943805 -6.7643447 -0.19606796 0 0 Z " fill="#0B051A" transform="translate(358,169)"/>
<path d="M0 0 C4.33233159 1.79934628 7.27969984 3.9870779 10 7.8125 C11.64265387 13.04845921 11.70167293 17.07963199 9.8125 22.25 C7.46100791 25.8177811 4.81557843 28.09221079 1 30 C-3.9509132 30.54317573 -7.89488185 30.52241949 -12.4375 28.375 C-16.9192458 24.22118682 -18.19222412 20.56919758 -18.5625 14.5625 C-18.43186188 9.5157431 -17.17765189 6.9284334 -13.703125 3.33984375 C-9.46708707 0.00736437 -5.33412995 -0.93564305 0 0 Z " fill="#F8ACCC" transform="translate(286,183)"/>
<path d="M0 0 C4.30742759 2.23654894 7.64038378 4.73453991 10 9 C10.79062745 14.20361946 10.78909054 19.23267834 8.375 24 C5.17904186 28.03699976 2.73107002 29.5576118 -2.36328125 30.3828125 C-7.12635256 30.71528789 -10.2293154 30.36683325 -14 27.3125 C-17.84999659 23.42626815 -18.85464921 20.52618332 -19.375 15.0625 C-19.2533715 10.75685125 -17.78850531 8.31606036 -15 5 C-10.10768607 0.69010439 -6.59116812 -0.88538079 0 0 Z " fill="#F8ACCD" transform="translate(467,183)"/>
<path d="M0 0 C5.94 0 11.88 0 18 0 C18 27.72 18 55.44 18 84 C12.06 84 6.12 84 0 84 C0 83.67 0 83.34 0 83 C5.28 83 10.56 83 16 83 C16 56.27 16 29.54 16 2 C10.72 2 5.44 2 0 2 C0 1.34 0 0.68 0 0 Z " fill="#372530" transform="translate(225,143)"/>
<path d="M0 0 C5.94 0 11.88 0 18 0 C17.67 1.98 17.34 3.96 17 6 C16.67 4.68 16.34 3.36 16 2 C11.38 2 6.76 2 2 2 C2 20.15 2 38.3 2 57 C7.28 57 12.56 57 18 57 C18 57.33 18 57.66 18 58 C12.06 58 6.12 58 0 58 C0 38.86 0 19.72 0 0 Z " fill="#37252F" transform="translate(365,169)"/>
<path d="M0 0 C0.66 0 1.32 0 2 0 C0.63629701 2.99220268 -0.94908083 5.29026529 -3.125 7.75 C-3.93324219 8.67039063 -3.93324219 8.67039063 -4.7578125 9.609375 C-5.16773438 10.06828125 -5.57765625 10.5271875 -6 11 C-6.66 10.67 -7.32 10.34 -8 10 C-7.04367001 8.70684939 -6.08486149 7.41553147 -5.125 6.125 C-4.59132813 5.40570313 -4.05765625 4.68640625 -3.5078125 3.9453125 C-2 2 -2 2 0 0 Z " fill="#1C1220" transform="translate(261,173)"/>
</svg>
