<svg width="57" height="18" viewBox="0 0 57 18" fill="none" xmlns="http://www.w3.org/2000/svg"><g clip-path="url(#clip0_3670_49653)"><path d="M17.1945 6.50119C16.6078 6.50103 16.0321 6.66073 15.5283 6.96333V11.4636C16.0286 11.7753 16.6061 11.9385 17.1945 11.9344C17.8272 11.9344 18.2944 11.718 18.5958 11.2853C18.8973 10.8526 19.0475 10.1677 19.0463 9.23077C19.0463 8.28572 18.899 7.59625 18.6044 7.16238C18.3104 6.72794 17.8393 6.51158 17.1945 6.51158M13.0489 5.30343C13.0422 5.24386 13.0479 5.18354 13.0656 5.12632C13.0834 5.06909 13.1128 5.01623 13.152 4.97111C13.2442 4.89991 13.3595 4.86596 13.4753 4.87591H14.6978C14.8101 4.86541 14.9221 4.8987 15.0108 4.96891C15.0994 5.03912 15.1579 5.1409 15.1741 5.25324L15.2928 5.70326C15.648 5.3622 16.0663 5.09463 16.5239 4.91572C16.9914 4.72716 17.4904 4.63022 17.994 4.63013C19.0945 4.63013 19.964 5.034 20.6024 5.84173C21.2409 6.64947 21.5613 7.74569 21.5636 9.13038C21.5811 9.98178 21.4188 10.8272 21.0873 11.6107C20.8138 12.2599 20.3705 12.8222 19.8046 13.2377C19.2535 13.6205 18.5964 13.8186 17.927 13.8037C17.4758 13.8056 17.0276 13.7307 16.6013 13.5822C16.2078 13.4487 15.844 13.2394 15.53 12.966V16.715C15.5424 16.8337 15.5091 16.9526 15.4372 17.0474C15.3426 17.1204 15.224 17.1544 15.1053 17.1426H13.4753C13.3595 17.1525 13.2442 17.1186 13.152 17.0474C13.1128 17.0022 13.0834 16.9494 13.0656 16.8921C13.0479 16.8349 13.0422 16.7746 13.0489 16.715V5.30343Z" fill="#1A98FF"/><path d="M25.5716 6.18282C25.9352 5.75348 26.369 5.38994 26.8544 5.10795C27.2503 4.9005 27.6908 4.79411 28.1371 4.79813H28.3709C28.493 4.78593 28.6154 4.81918 28.7148 4.89159C28.7541 4.93704 28.7835 4.9902 28.8013 5.04771C28.819 5.10521 28.8247 5.16581 28.818 5.22565V6.66227C28.8269 6.77871 28.7933 6.89442 28.7234 6.98767C28.6783 7.02719 28.6255 7.05683 28.5683 7.07471C28.5112 7.09258 28.451 7.09831 28.3916 7.09152C28.2898 7.09321 28.1881 7.08743 28.0872 7.07421C27.929 7.05844 27.7699 7.05266 27.6109 7.05691C27.2913 7.06374 26.973 7.10025 26.6601 7.16595C26.3335 7.22645 26.0142 7.3216 25.7075 7.44981V13.1911C25.7181 13.3069 25.6849 13.4225 25.6146 13.5148C25.5695 13.5543 25.5167 13.5839 25.4595 13.6018C25.4024 13.6197 25.3422 13.6254 25.2828 13.6186H23.651C23.5561 13.6337 23.459 13.6109 23.3806 13.5549C23.3022 13.499 23.2487 13.4144 23.2315 13.3192C23.2246 13.2779 23.2246 13.2358 23.2315 13.1946V5.30354C23.2254 5.24386 23.2313 5.18357 23.2487 5.1262C23.2661 5.06883 23.2947 5.01555 23.3329 4.96948C23.4259 4.90011 23.5409 4.86747 23.6562 4.87775H24.8804C24.9922 4.86716 25.1038 4.89998 25.1923 4.96948C25.2809 5.03898 25.3397 5.1399 25.3567 5.25161L25.5716 6.18282Z" fill="#1A98FF"/><path d="M30.0166 5.30343C30.0106 5.24376 30.0168 5.18347 30.0348 5.1263C30.0528 5.06914 30.0824 5.01631 30.1215 4.9711C30.2137 4.89991 30.329 4.86595 30.4448 4.8759H32.0765C32.1946 4.86399 32.3128 4.89806 32.4067 4.9711C32.4792 5.06564 32.5131 5.18456 32.5013 5.30343V13.1893C32.5111 13.3058 32.4774 13.4218 32.4067 13.5147C32.3617 13.5538 32.3091 13.5831 32.2523 13.6007C32.1955 13.6183 32.1356 13.6238 32.0765 13.6168H30.4448C30.3491 13.6335 30.2507 13.6116 30.171 13.5559C30.0912 13.5002 30.0364 13.4151 30.0184 13.3191C30.0115 13.2772 30.0115 13.2345 30.0184 13.1927L30.0166 5.30343ZM31.2581 3.52583C30.8812 3.54253 30.5122 3.41375 30.2264 3.16581C30.0955 3.04122 29.9929 2.88965 29.9255 2.72148C29.8582 2.5533 29.8277 2.37247 29.8361 2.19133C29.8276 2.00994 29.8581 1.82884 29.9255 1.66038C29.9928 1.49192 30.0955 1.34005 30.2264 1.21512C30.5228 0.982975 30.8877 0.856934 31.2632 0.856934C31.6388 0.856934 32.0037 0.982975 32.3001 1.21512C32.431 1.34005 32.5336 1.49192 32.601 1.66038C32.6684 1.82884 32.6988 2.00994 32.6904 2.19133C32.6988 2.37247 32.6683 2.5533 32.6009 2.72148C32.5336 2.88965 32.431 3.04122 32.3001 3.16581C32.014 3.41314 31.6452 3.54183 31.2684 3.52583" fill="#1A98FF"/><path d="M36.8618 5.71548C37.366 5.3655 37.9119 5.08057 38.4867 4.86736C38.9652 4.70484 39.4672 4.62297 39.9723 4.62504C40.9925 4.62504 41.7118 4.99025 42.1302 5.72068C42.635 5.3697 43.1837 5.08743 43.762 4.88121C44.2717 4.71151 44.8052 4.62503 45.3421 4.62504C46.1354 4.62504 46.7498 4.84717 47.1854 5.29142C47.621 5.73568 47.8394 6.35763 47.8405 7.15729V13.1894C47.8505 13.3064 47.8168 13.4231 47.7459 13.5165C47.7006 13.555 47.648 13.5838 47.5912 13.601C47.5344 13.6183 47.4747 13.6237 47.4158 13.6169H45.784C45.7367 13.6256 45.6881 13.6248 45.6411 13.6145C45.5941 13.6043 45.5496 13.5847 45.5101 13.5571C45.4706 13.5294 45.437 13.4941 45.4111 13.4533C45.3852 13.4125 45.3676 13.3669 45.3593 13.3192C45.3508 13.2752 45.3508 13.2299 45.3593 13.1859V7.69905C45.3593 6.92363 45.0154 6.53591 44.3277 6.53591C43.6834 6.54257 43.0488 6.69458 42.4706 6.98075V13.1894C42.4808 13.3059 42.4484 13.4222 42.3795 13.5165C42.3339 13.555 42.2809 13.5838 42.2239 13.6011C42.1668 13.6183 42.1068 13.6237 42.0477 13.6169H40.4159C40.3578 13.6277 40.2979 13.6241 40.2415 13.6065C40.185 13.5888 40.1337 13.5576 40.0919 13.5155C40.0501 13.4734 40.0191 13.4218 40.0015 13.365C39.984 13.3081 39.9804 13.2479 39.9912 13.1894V7.69905C39.9912 6.92363 39.6473 6.53591 38.9595 6.53591C38.3093 6.54028 37.6692 6.69796 37.0905 6.99632V13.1894C37.1011 13.3062 37.068 13.4229 36.9976 13.5165C36.951 13.5578 36.8963 13.5888 36.8371 13.6076C36.7779 13.6264 36.7154 13.6325 36.6537 13.6255H35.022C34.9749 13.6343 34.9265 13.6336 34.8797 13.6236C34.8329 13.6135 34.7885 13.5943 34.7491 13.567C34.7096 13.5396 34.6759 13.5048 34.6499 13.4643C34.6238 13.4239 34.6059 13.3787 34.5973 13.3313C34.5887 13.2873 34.5887 13.242 34.5973 13.198V5.30354C34.5911 5.24413 34.597 5.18408 34.6144 5.12698C34.6318 5.06989 34.6605 5.01691 34.6987 4.97121C34.7913 4.90091 34.9063 4.86706 35.022 4.87601H36.2462C36.3581 4.86641 36.4695 4.90007 36.5577 4.97016C36.6458 5.04025 36.7041 5.14151 36.7208 5.25334L36.8618 5.71548Z" fill="#1A98FF"/><path d="M53.4476 6.35587C52.3597 6.35587 51.7293 7.02917 51.5562 8.37579C52.055 8.47 52.5618 8.51522 53.0693 8.51079C53.6425 8.51079 54.0614 8.42252 54.3262 8.24597C54.4564 8.15701 54.5611 8.03523 54.6299 7.89278C54.6987 7.75033 54.7292 7.5922 54.7183 7.4342C54.7183 6.71646 54.293 6.35702 53.4424 6.35587M53.2103 10.0426C52.6437 10.0522 52.0781 9.98995 51.527 9.85741C51.5957 10.6201 51.825 11.1671 52.2147 11.4983C52.6045 11.8294 53.1965 11.9944 53.9909 11.9933C54.3003 11.9931 54.6093 11.9728 54.916 11.9327C55.3371 11.8671 55.7544 11.7787 56.1661 11.6679C56.1989 11.6558 56.2329 11.6471 56.2675 11.6419C56.2956 11.6402 56.3237 11.6402 56.3518 11.6419C56.5443 11.6419 56.6406 11.7735 56.6406 12.0366V12.8224C56.6513 12.955 56.6251 13.0881 56.565 13.2066C56.4863 13.2994 56.3832 13.3678 56.2675 13.404C55.426 13.7246 54.533 13.8865 53.6333 13.8817C52.2279 13.8817 51.1487 13.4945 50.3956 12.7203C49.6424 11.946 49.2659 10.8342 49.2659 9.38488C49.2659 7.90211 49.651 6.73839 50.4213 5.89372C51.1917 5.04906 52.2629 4.62615 53.635 4.625C54.6885 4.625 55.5127 4.88174 56.1076 5.39524C56.401 5.64706 56.6338 5.96268 56.7884 6.31829C56.943 6.67389 57.0153 7.06019 57 7.44804C57 8.30309 56.6796 8.95043 56.0388 9.39007C55.398 9.82971 54.4552 10.049 53.2103 10.0478" fill="#1A98FF"/><path d="M12.0207 4.86732H9.97285C9.86796 4.86732 9.57222 4.82404 9.49312 5.01271L4.89701 12.4537L2.82163 9.80374C2.79406 9.76178 2.75648 9.72744 2.71232 9.70385C2.66817 9.68027 2.61885 9.6682 2.56887 9.66874H0.304345C0.22422 9.66873 0.147325 9.70053 0.0903477 9.75724C0.03337 9.81395 0.000906065 9.89099 7.01222e-07 9.97164C-0.000146405 10.0412 0.0228558 10.1089 0.0653401 10.1638L4.83168 16.1353C4.85979 16.1727 4.89619 16.2029 4.93799 16.2237C4.97978 16.2444 5.02581 16.255 5.0724 16.2547H5.08615C5.13517 16.2525 5.18295 16.2384 5.22544 16.2137C5.26793 16.189 5.3039 16.1544 5.33032 16.1127L12.1652 5.45235C12.442 5.06983 12.1325 4.86732 12.0207 4.86732Z" fill="#FF9900"/></g><defs><clipPath id="clip0_3670_49653"><rect width="57" height="16.2857" fill="white" transform="translate(0 0.856934)"/></clipPath></defs></svg>